<svg version="1.1" xmlns="http://www.w3.org/2000/svg" viewBox="0 0 1541.9999999999995 1054.6196762089044" width="3083.999999999999" height="2109.2393524178087">
  <!-- svg-source:excalidraw -->
  
  <defs>
    <style>
      @font-face {
        font-family: "Virgil";
        src: url("https://excalidraw.com/Virgil.woff2");
      }
      @font-face {
        font-family: "Cascadia";
        src: url("https://excalidraw.com/Cascadia.woff2");
      }
    </style>
  </defs>
  <rect x="0" y="0" width="1541.9999999999995" height="1054.6196762089044" fill="#ffffff"></rect><g stroke-linecap="round" transform="translate(10 78.61967620890482) rotate(0 760.9999999999998 482.9999999999998)"><path d="M0 0 C465.79 0, 931.58 0, 1522 0 M0 0 C304.51 0, 609.02 0, 1522 0 M1522 0 C1522 193.25, 1522 386.49, 1522 966 M1522 0 C1522 309.24, 1522 618.47, 1522 966 M1522 966 C1212.5 966, 902.99 966, 0 966 M1522 966 C1094.74 966, 667.48 966, 0 966 M0 966 C0 678.17, 0 390.34, 0 0 M0 966 C0 758.34, 0 550.68, 0 0" stroke="#000000" stroke-width="1" fill="none"></path></g><g transform="translate(549.9999999999998 212.11967620890482) rotate(0 179 69)"><text x="179" y="32" font-family="Virgil, Segoe UI Emoji" font-size="36px" fill="#000000" text-anchor="middle" style="white-space: pre;" direction="ltr">Egen Emporium Admin</text><text x="179" y="78" font-family="Virgil, Segoe UI Emoji" font-size="36px" fill="#000000" text-anchor="middle" style="white-space: pre;" direction="ltr"></text><text x="179" y="124" font-family="Virgil, Segoe UI Emoji" font-size="36px" fill="#000000" text-anchor="middle" style="white-space: pre;" direction="ltr">Login</text></g><g stroke-linecap="round" transform="translate(618.7777777777774 468.06412065334916) rotate(0 137 22.5)"><path d="M11.25 0 M11.25 0 C103.18 0, 195.11 0, 262.75 0 M11.25 0 C102.31 0, 193.37 0, 262.75 0 M262.75 0 C270.25 0, 274 3.75, 274 11.25 M262.75 0 C270.25 0, 274 3.75, 274 11.25 M274 11.25 C274 16.61, 274 21.98, 274 33.75 M274 11.25 C274 18.35, 274 25.46, 274 33.75 M274 33.75 C274 41.25, 270.25 45, 262.75 45 M274 33.75 C274 41.25, 270.25 45, 262.75 45 M262.75 45 C179.48 45, 96.22 45, 11.25 45 M262.75 45 C164.74 45, 66.72 45, 11.25 45 M11.25 45 C3.75 45, 0 41.25, 0 33.75 M11.25 45 C3.75 45, 0 41.25, 0 33.75 M0 33.75 C0 25.14, 0 16.53, 0 11.25 M0 33.75 C0 28.46, 0 23.17, 0 11.25 M0 11.25 C0 3.75, 3.75 0, 11.25 0 M0 11.25 C0 3.75, 3.75 0, 11.25 0" stroke="#000000" stroke-width="1" fill="none"></path></g><g transform="translate(713.7777777777774 419.56412065334916) rotate(0 25 13)"><text x="0" y="18" font-family="Virgil, Segoe UI Emoji" font-size="20px" fill="#000000" text-anchor="start" style="white-space: pre;" direction="ltr">Email</text></g><g stroke-linecap="round" transform="translate(616.7777777777774 626.5641206533492) rotate(0 137 22.5)"><path d="M11.25 0 M11.25 0 C78.14 0, 145.04 0, 262.75 0 M11.25 0 C100.65 0, 190.04 0, 262.75 0 M262.75 0 C270.25 0, 274 3.75, 274 11.25 M262.75 0 C270.25 0, 274 3.75, 274 11.25 M274 11.25 C274 15.98, 274 20.71, 274 33.75 M274 11.25 C274 18.39, 274 25.53, 274 33.75 M274 33.75 C274 41.25, 270.25 45, 262.75 45 M274 33.75 C274 41.25, 270.25 45, 262.75 45 M262.75 45 C182.28 45, 101.8 45, 11.25 45 M262.75 45 C190.81 45, 118.87 45, 11.25 45 M11.25 45 C3.75 45, 0 41.25, 0 33.75 M11.25 45 C3.75 45, 0 41.25, 0 33.75 M0 33.75 C0 27.69, 0 21.62, 0 11.25 M0 33.75 C0 25.92, 0 18.1, 0 11.25 M0 11.25 C0 3.75, 3.75 0, 11.25 0 M0 11.25 C0 3.75, 3.75 0, 11.25 0" stroke="#000000" stroke-width="1" fill="none"></path></g><g transform="translate(691.7777777777774 590.0641206533492) rotate(0 46.5 13)"><text x="0" y="18" font-family="Virgil, Segoe UI Emoji" font-size="20px" fill="#000000" text-anchor="start" style="white-space: pre;" direction="ltr">Password</text></g><g stroke-linecap="round" transform="translate(668.9999999999998 832.6196762089048) rotate(0 92.5 29.5)"><path d="M0 0 L185 0 L185 59 L0 59" stroke="none" stroke-width="0" fill="#cccccc"></path><path d="M0 0 C54.9 0, 109.81 0, 185 0 M0 0 C40.16 0, 80.31 0, 185 0 M185 0 C185 17.16, 185 34.32, 185 59 M185 0 C185 20.99, 185 41.98, 185 59 M185 59 C135.44 59, 85.88 59, 0 59 M185 59 C114.12 59, 43.24 59, 0 59 M0 59 C0 41.48, 0 23.96, 0 0 M0 59 C0 38.54, 0 18.09, 0 0" stroke="#000000" stroke-width="1" fill="none"></path></g><g transform="translate(737.9999999999998 847.6196762089048) rotate(0 24 13)"><text x="0" y="18" font-family="Virgil, Segoe UI Emoji" font-size="20px" fill="#000000" text-anchor="start" style="white-space: pre;" direction="ltr">Login</text></g><g transform="translate(665.9999999999998 733.6196762089048) rotate(0 86 13)"><text x="86" y="18" font-family="Virgil, Segoe UI Emoji" font-size="20px" fill="#495057" text-anchor="middle" style="white-space: pre;" direction="ltr">Forgot password?</text></g><g transform="translate(638.0080244066226 481.26493978197686) rotate(0 99 10.5)"><text x="0" y="15" font-family="Virgil, Segoe UI Emoji" font-size="16px" fill="#343a40" text-anchor="start" style="white-space: pre;" direction="ltr">halle.berry@egen.solutions</text></g><g transform="translate(639.6352585555366 638.8369994111572) rotate(0 33.5 10.5)"><text x="0" y="15" font-family="Virgil, Segoe UI Emoji" font-size="16px" fill="#343a40" text-anchor="start" style="white-space: pre;" direction="ltr">********</text></g><g transform="translate(1441.753169626474 10) rotate(0 41.5 17.5)"><text x="0" y="28" font-family="Cascadia, Segoe UI Emoji" font-size="28px" fill="#000000" text-anchor="start" style="white-space: pre;" direction="ltr">/home</text></g></svg>