<svg xmlns="http://www.w3.org/2000/svg" viewBox="0 0 326.62 149.9"><path d="M160.2,38.21v75.65q0,36-39.47,36-15.44,0-25.19-7t-11.31-20H97.34a17.28,17.28,0,0,0,8,11.54q6.39,4.06,16.38,4.06,25.74,0,25.74-25.11V104q-8.58,14.65-27.3,14.66a39.68,39.68,0,0,1-19.73-4.84,34,34,0,0,1-13.57-14Q81.89,90.62,81.89,78a44.34,44.34,0,0,1,4.92-21.22,36,36,0,0,1,13.65-14.35,38,38,0,0,1,19.65-5.14q9.67,0,16.53,3.82a27.33,27.33,0,0,1,10.77,10.84l1.71-13.73ZM135,103.65a24.55,24.55,0,0,0,9.28-10.3,33.59,33.59,0,0,0,3.27-15,34.92,34.92,0,0,0-3.27-15.36A24.76,24.76,0,0,0,135,52.41a25.26,25.26,0,0,0-13.65-3.75q-11.86,0-19.11,8.19T95,78q0,12.95,7.25,21.13t19.11,8.19A25.73,25.73,0,0,0,135,103.65Z" fill="#003847"/><path d="M175.16,56.62a34.62,34.62,0,0,1,13.33-14.27,37.9,37.9,0,0,1,19.66-5.07,40.2,40.2,0,0,1,19.34,4.52,32.84,32.84,0,0,1,13.26,13.1A42.8,42.8,0,0,1,245.9,75c0,1.15-.11,3-.32,5.46H183.82v1.1q.3,11.69,7.17,18.71t17.94,7A24.41,24.41,0,0,0,223.51,103a20.69,20.69,0,0,0,8-11.93h12.94A33.11,33.11,0,0,1,232.79,111q-9.36,7.72-22.93,7.72a41.15,41.15,0,0,1-20.74-5.07,35,35,0,0,1-13.81-14.35A44.88,44.88,0,0,1,170.4,78,45.91,45.91,0,0,1,175.16,56.62Zm57.48,13.26q-.94-10.14-7.57-15.76T208.3,48.51a23.62,23.62,0,0,0-15.91,5.92,22.54,22.54,0,0,0-7.79,15.45Z" fill="#003847"/><path d="M4.76,56.62A34.62,34.62,0,0,1,18.09,42.35a37.9,37.9,0,0,1,19.66-5.07A40.2,40.2,0,0,1,57.09,41.8,32.9,32.9,0,0,1,70.35,54.9,42.8,42.8,0,0,1,75.5,75c0,1.15-.11,3-.32,5.46H13.41v1.1q.31,11.69,7.18,18.71t17.94,7A24.41,24.41,0,0,0,53.11,103a20.63,20.63,0,0,0,8-11.93h13A33.11,33.11,0,0,1,62.39,111Q53,118.7,39.46,118.7a41.13,41.13,0,0,1-20.74-5.07A35,35,0,0,1,4.91,99.28,44.88,44.88,0,0,1,0,78,45.79,45.79,0,0,1,4.76,56.62ZM62.24,69.88q-.95-10.14-7.57-15.76T37.9,48.51A23.62,23.62,0,0,0,22,54.43a22.59,22.59,0,0,0-7.8,15.45Z" fill="#003847"/><path d="M317.81,8.73q8.81,8.75,8.81,27.46v44.3H313.83V37q0-12.33-5.54-18.8t-16-6.47q-11.24,0-17.63,7.8t-6.4,21.21V80.49H255.49V.94h11.08l1.71,10.76Q277.33,0,294.49,0,309,0,317.81,8.73Z" fill="#003847"/></svg>